<svg width="25" height="25" viewBox="0 0 25 25" fill="none" xmlns="http://www.w3.org/2000/svg">
<path d="M6.73 5.80005C6.79 6.69005 6.94 7.56005 7.18 8.39005L5.98 9.59005C5.57 8.39005 5.31 7.12005 5.22 5.80005H6.73ZM16.59 17.82C17.44 18.06 18.31 18.21 19.19 18.27V19.76C17.87 19.67 16.6 19.41 15.39 19.01L16.59 17.82ZM7.69 3.80005H4.19C3.64 3.80005 3.19 4.25005 3.19 4.80005C3.19 14.19 10.8 21.8 20.19 21.8C20.74 21.8 21.19 21.35 21.19 20.8V17.31C21.19 16.76 20.74 16.31 20.19 16.31C18.95 16.31 17.74 16.11 16.62 15.74C16.52 15.7 16.41 15.69 16.31 15.69C16.05 15.69 15.8 15.79 15.6 15.98L13.4 18.18C10.57 16.73 8.25 14.42 6.81 11.59L9.01 9.39005C9.29 9.11005 9.37 8.72005 9.26 8.37005C8.89 7.25005 8.69 6.05005 8.69 4.80005C8.69 4.25005 8.24 3.80005 7.69 3.80005Z" fill="white"/>
</svg>
