<svg width="17" height="17" viewBox="0 0 17 17" fill="none" xmlns="http://www.w3.org/2000/svg">
<path d="M13.5416 11.8618C15.1831 12.3342 16.19 13.0194 16.19 14.0102C16.19 15.2207 14.5195 16.0826 12.0389 16.5053L11.6296 16.57C11.4909 16.5903 11.35 16.6093 11.207 16.6269L10.7718 16.6759C10.5512 16.6985 10.3262 16.718 10.0973 16.7345L9.6342 16.7635L9.16143 16.7843C9.08187 16.7871 9.00194 16.7895 8.92166 16.7916L8.43584 16.8H7.94416L7.45835 16.7916C7.37806 16.7895 7.29813 16.7871 7.21857 16.7843L6.7458 16.7635L6.28275 16.7345C6.0538 16.718 5.82878 16.6985 5.60818 16.6759L5.173 16.6269C5.10149 16.6181 5.03051 16.6089 4.96007 16.5994L4.54404 16.5386C1.95203 16.129 0.190002 15.2535 0.190002 14.0102C0.190002 13.0194 1.19686 12.3342 2.83842 11.8618C3.22314 11.7511 3.62859 11.9605 3.744 12.3296C3.85942 12.6987 3.64111 13.0876 3.25639 13.1984C2.66308 13.3691 2.20183 13.5656 1.90955 13.7645C1.80862 13.8332 1.74237 13.8897 1.70135 13.9315L1.65757 13.9829C1.64849 13.9961 1.64455 14.0053 1.64455 14.0102C1.64455 14.1524 1.84557 14.3154 2.2065 14.4786L2.4001 14.5602C2.46895 14.5873 2.54205 14.6143 2.61921 14.6412L2.86269 14.7211C2.94778 14.7475 3.03674 14.7736 3.12938 14.7994L3.41816 14.8754C3.46807 14.8878 3.51885 14.9001 3.57047 14.9124L3.89023 14.9839C4.00009 15.0072 4.11314 15.0299 4.22921 15.0519L4.58628 15.1156L4.96029 15.1744C5.02397 15.1838 5.08831 15.193 5.15328 15.2019L5.55056 15.2525L5.96192 15.2969L6.38622 15.3345C6.52968 15.3459 6.67512 15.356 6.82232 15.3648L7.26908 15.3871L7.72535 15.4009C7.80213 15.4024 7.87925 15.4036 7.9567 15.4044L8.19 15.4056C8.34615 15.4056 8.5011 15.404 8.65465 15.4009L9.11092 15.3871L9.55768 15.3648C9.70488 15.356 9.85032 15.3459 9.99378 15.3345L10.4181 15.2969L10.8294 15.2525L11.2267 15.2019L11.6088 15.1456C11.6711 15.1358 11.7328 15.1258 11.7937 15.1156L12.1508 15.0519L12.3226 15.0184L12.6521 14.9486C12.7587 14.9247 12.862 14.9003 12.9618 14.8754L13.2506 14.7994C13.2969 14.7865 13.3423 14.7735 13.3868 14.7605L13.642 14.6813C13.7638 14.6413 13.8766 14.6009 13.9799 14.5602L14.1735 14.4786C14.5344 14.3154 14.7355 14.1524 14.7355 14.0102C14.7355 14.0053 14.7315 13.9961 14.7224 13.9829L14.6787 13.9316C14.6376 13.8897 14.5714 13.8332 14.4704 13.7645C14.1782 13.5656 13.7169 13.3691 13.1236 13.1984C12.7389 13.0876 12.5206 12.6987 12.636 12.3296C12.7514 11.9605 13.1568 11.7511 13.5416 11.8618ZM8.19 0.800049C11.1985 0.800049 13.6445 3.08929 13.6445 5.92197C13.6445 7.64137 12.672 9.30854 11.0758 10.8878C10.5335 11.4244 9.9547 11.9131 9.37574 12.3461L9.12831 12.5278L8.81703 12.7461L8.58787 12.8965C8.34614 13.048 8.03386 13.048 7.79213 12.8965C7.77166 12.8837 7.74945 12.8695 7.72558 12.8541L7.46776 12.6807L7.25169 12.5278L7.00426 12.3461C6.4253 11.9131 5.84654 11.4244 5.30424 10.8878C3.70798 9.30854 2.73545 7.64137 2.73545 5.92197C2.73545 3.08929 5.18152 0.800049 8.19 0.800049ZM8.19 2.1955C5.97688 2.1955 4.19 3.86782 4.19 5.92197C4.19 7.20083 4.99021 8.57259 6.34849 9.9165C6.84028 10.4031 7.36947 10.8499 7.89847 11.2455C7.99084 11.3146 8.07979 11.3795 8.16473 11.4401L8.19 11.457L8.27972 11.3938L8.48153 11.2455C9.01053 10.8499 9.53972 10.4031 10.0315 9.9165C11.3898 8.57259 12.19 7.20083 12.19 5.92197C12.19 3.86782 10.4031 2.1955 8.19 2.1955ZM8.19 3.59094C9.59581 3.59094 10.7355 4.68429 10.7355 6.03297C10.7355 7.38166 9.59581 8.47501 8.19 8.47501C6.78419 8.47501 5.64455 7.38166 5.64455 6.03297C5.64455 4.68429 6.78419 3.59094 8.19 3.59094ZM8.19 4.98639C7.58752 4.98639 7.09909 5.45497 7.09909 6.03297C7.09909 6.61098 7.58752 7.07956 8.19 7.07956C8.79248 7.07956 9.28091 6.61098 9.28091 6.03297C9.28091 5.45497 8.79248 4.98639 8.19 4.98639Z" fill="white"/>
</svg>
