<svg width="64" height="41" viewBox="0 0 64 41" fill="none" xmlns="http://www.w3.org/2000/svg">
<g clip-path="url(#clip0_1_467)">
<path d="M6.5886 10.9492H23.5631C24.4006 10.9517 25.2031 11.2883 25.7953 11.8857C26.3874 12.483 26.7212 13.2925 26.7236 14.1373V14.3947C26.721 15.2394 26.3872 16.0488 25.7951 16.6461C25.2029 17.2434 24.4005 17.5801 23.5631 17.5827H10.8881L10.8872 17.5841L10.8868 17.5857L10.8872 17.5873L10.8881 17.5887L25.9227 40.798H37.4968L37.4981 40.7965L37.4985 40.7948L37.4981 40.7929L37.4968 40.7913L28.3289 26.66L28.3279 26.6587L28.3276 26.657L28.3279 26.6554L28.3289 26.654C30.433 25.8062 32.2861 24.4278 33.7109 22.6508C35.1356 20.8737 36.0844 18.7576 36.4663 16.5048C37.8341 8.34562 31.4953 0.93335 23.2915 0.93335H0.152466L0.111694 0.959884L6.58202 10.9472L6.58189 10.9486L6.58229 10.9499L6.58314 10.9509L6.58432 10.9515L6.58566 10.9517L6.58694 10.9513L6.58797 10.9504L6.5886 10.9492Z" fill="white"/>
<path d="M63.0782 30.7833H49.8719C49.8061 30.7833 49.7443 30.7833 49.6805 30.7774L49.5904 30.7701C49.5628 30.7701 49.5352 30.7654 49.5076 30.7621C49.4641 30.7575 49.4221 30.7522 49.3806 30.7455H49.3622C48.6746 30.6366 48.0391 30.3104 47.547 29.8139C47.0549 29.3175 46.7317 28.6763 46.6239 27.9827C46.6239 27.9767 46.6239 27.9707 46.6239 27.9648C46.6173 27.923 46.6121 27.8799 46.6074 27.8367C46.6074 27.8089 46.6022 27.781 46.5996 27.7532C46.5969 27.7253 46.5943 27.6928 46.5923 27.6616C46.5923 27.5953 46.5864 27.5336 46.5864 27.4692C46.5864 27.4029 46.5864 27.3366 46.5923 27.2762C46.5923 27.245 46.5969 27.2152 46.5996 27.1847C46.6022 27.1541 46.6042 27.1289 46.6074 27.1011C46.6121 27.058 46.6173 27.0155 46.6239 26.9731C46.6239 26.9671 46.6239 26.9611 46.6239 26.9551C46.7317 26.2616 47.0549 25.6204 47.547 25.1239C48.0391 24.6274 48.6746 24.3012 49.3622 24.1923H49.3806C49.4221 24.1863 49.4641 24.1804 49.5076 24.1757L49.5904 24.1677C49.62 24.1677 49.6503 24.1624 49.6805 24.1611C49.7441 24.1571 49.8079 24.1551 49.8719 24.1551H63.09V14.1432C63.09 14.1406 63.089 14.138 63.0871 14.1362C63.0853 14.1343 63.0828 14.1333 63.0802 14.1333H50.0014C42.3132 14.1333 36.2473 20.4749 36.6748 28.2188C37.0614 35.2324 42.8222 40.7999 49.8719 40.7999H63.0782C63.0808 40.7999 63.0833 40.7989 63.0852 40.797C63.087 40.7951 63.0881 40.7926 63.0881 40.79V30.7933C63.0881 30.7906 63.087 30.7881 63.0852 30.7862C63.0833 30.7844 63.0808 30.7833 63.0782 30.7833Z" fill="white"/>
<path d="M9.82274 40.8001V22.4916C9.82274 21.1897 9.31004 19.9411 8.39741 19.0206C7.48479 18.1 6.247 17.5828 4.95636 17.5828C3.66571 17.5828 2.42793 18.1 1.5153 19.0206C0.602673 19.9411 0.0899658 21.1897 0.0899658 22.4916V40.8001H9.82274Z" fill="white"/>
<path d="M42.2159 0.800049L48.581 10.6176H63.09V0.800049H42.2159Z" fill="white"/>
</g>
<defs>
<clipPath id="clip0_1_467">
<rect width="63" height="40" fill="white" transform="translate(0.0899658 0.800049)"/>
</clipPath>
</defs>
</svg>
