<svg width="82" height="59" viewBox="0 0 82 59" fill="none" xmlns="http://www.w3.org/2000/svg">
<g clip-path="url(#clip0_1_480)">
<path d="M1.32896 3.21674C2.01324 3.21674 2.56795 2.67575 2.56795 2.0084C2.56795 1.34104 2.01324 0.800049 1.32896 0.800049C0.644681 0.800049 0.0899658 1.34104 0.0899658 2.0084C0.0899658 2.67575 0.644681 3.21674 1.32896 3.21674Z" fill="white"/>
<path d="M3.80657 11.2207C5.26065 11.2207 6.43942 10.0711 6.43942 8.65294C6.43942 7.23482 5.26065 6.08521 3.80657 6.08521C2.35248 6.08521 1.17371 7.23482 1.17371 8.65294C1.17371 10.0711 2.35248 11.2207 3.80657 11.2207Z" fill="white"/>
<path d="M6.90324 17.8678C8.35733 17.8678 9.5361 16.7182 9.5361 15.3001C9.5361 13.882 8.35733 12.7324 6.90324 12.7324C5.44916 12.7324 4.27039 13.882 4.27039 15.3001C4.27039 16.7182 5.44916 17.8678 6.90324 17.8678Z" fill="white"/>
<path d="M10.311 23.607C11.0808 23.607 11.7049 22.9984 11.7049 22.2476C11.7049 21.4968 11.0808 20.8882 10.311 20.8882C9.54116 20.8882 8.91711 21.4968 8.91711 22.2476C8.91711 22.9984 9.54116 23.607 10.311 23.607Z" fill="white"/>
<path d="M14.649 31.1583C15.5043 31.1583 16.1977 30.4821 16.1977 29.6479C16.1977 28.8137 15.5043 28.1375 14.649 28.1375C13.7936 28.1375 13.1003 28.8137 13.1003 29.6479C13.1003 30.4821 13.7936 31.1583 14.649 31.1583Z" fill="white"/>
<path d="M19.9151 40.6762C21.7969 40.6762 23.3223 39.1885 23.3223 37.3533C23.3223 35.5181 21.7969 34.0303 19.9151 34.0303C18.0333 34.0303 16.5079 35.5181 16.5079 37.3533C16.5079 39.1885 18.0333 40.6762 19.9151 40.6762Z" fill="white"/>
<path d="M25.7967 47.472C26.9087 47.472 27.8101 46.5929 27.8101 45.5085C27.8101 44.424 26.9087 43.5449 25.7967 43.5449C24.6848 43.5449 23.7834 44.424 23.7834 45.5085C23.7834 46.5929 24.6848 47.472 25.7967 47.472Z" fill="white"/>
<path d="M32.613 58.8002C35.2646 58.8002 37.4141 56.7038 37.4141 54.1178C37.4141 51.5318 35.2646 49.4355 32.613 49.4355C29.9614 49.4355 27.8119 51.5318 27.8119 54.1178C27.8119 56.7038 29.9614 58.8002 32.613 58.8002Z" fill="white"/>
<path d="M11.2394 4.12299C11.9237 4.12299 12.4784 3.582 12.4784 2.91465C12.4784 2.24729 11.9237 1.7063 11.2394 1.7063C10.5551 1.7063 10.0004 2.24729 10.0004 2.91465C10.0004 3.582 10.5551 4.12299 11.2394 4.12299Z" fill="white"/>
<path d="M13.253 9.86103C13.9372 9.86103 14.492 9.32003 14.492 8.65268C14.492 7.98533 13.9372 7.44434 13.253 7.44434C12.5687 7.44434 12.014 7.98533 12.014 8.65268C12.014 9.32003 12.5687 9.86103 13.253 9.86103Z" fill="white"/>
<path d="M15.7331 16.9609C17.1872 16.9609 18.366 15.8112 18.366 14.3931C18.366 12.975 17.1872 11.8254 15.7331 11.8254C14.279 11.8254 13.1003 12.975 13.1003 14.3931C13.1003 15.8112 14.279 16.9609 15.7331 16.9609Z" fill="white"/>
<path d="M18.985 21.946C19.6693 21.946 20.224 21.405 20.224 20.7377C20.224 20.0703 19.6693 19.5293 18.985 19.5293C18.3007 19.5293 17.746 20.0703 17.746 20.7377C17.746 21.405 18.3007 21.946 18.985 21.946Z" fill="white"/>
<path d="M23.011 30.1031C24.5507 30.1031 25.7988 28.8858 25.7988 27.3843C25.7988 25.8828 24.5507 24.6655 23.011 24.6655C21.4714 24.6655 20.2233 25.8828 20.2233 27.3843C20.2233 28.8858 21.4714 30.1031 23.011 30.1031Z" fill="white"/>
<path d="M27.8117 37.3515C29.5224 37.3515 30.9092 35.999 30.9092 34.3306C30.9092 32.6623 29.5224 31.3098 27.8117 31.3098C26.1011 31.3098 24.7143 32.6623 24.7143 34.3306C24.7143 35.999 26.1011 37.3515 27.8117 37.3515Z" fill="white"/>
<path d="M33.6962 43.2436C34.6371 43.2436 35.3998 42.4997 35.3998 41.5821C35.3998 40.6645 34.6371 39.9207 33.6962 39.9207C32.7553 39.9207 31.9926 40.6645 31.9926 41.5821C31.9926 42.4997 32.7553 43.2436 33.6962 43.2436Z" fill="white"/>
<path d="M41.285 53.0605C43.5944 53.0605 45.4666 51.2346 45.4666 48.9823C45.4666 46.73 43.5944 44.9041 41.285 44.9041C38.9756 44.9041 37.1034 46.73 37.1034 48.9823C37.1034 51.2346 38.9756 53.0605 41.285 53.0605Z" fill="white"/>
<path d="M20.2242 4.72739C20.8229 4.72739 21.3083 4.25402 21.3083 3.67009C21.3083 3.08616 20.8229 2.61279 20.2242 2.61279C19.6254 2.61279 19.14 3.08616 19.14 3.67009C19.14 4.25402 19.6254 4.72739 20.2242 4.72739Z" fill="white"/>
<path d="M22.081 10.769C23.2785 10.769 24.2492 9.82226 24.2492 8.6544C24.2492 7.48654 23.2785 6.53979 22.081 6.53979C20.8835 6.53979 19.9128 7.48654 19.9128 8.6544C19.9128 9.82226 20.8835 10.769 22.081 10.769Z" fill="white"/>
<path d="M24.2505 16.0547C25.5335 16.0547 26.5736 15.0403 26.5736 13.789C26.5736 12.5378 25.5335 11.5234 24.2505 11.5234C22.9675 11.5234 21.9274 12.5378 21.9274 13.789C21.9274 15.0403 22.9675 16.0547 24.2505 16.0547Z" fill="white"/>
<path d="M27.1941 20.737C27.8784 20.737 28.4331 20.196 28.4331 19.5286C28.4331 18.8613 27.8784 18.3203 27.1941 18.3203C26.5098 18.3203 25.9551 18.8613 25.9551 19.5286C25.9551 20.196 26.5098 20.737 27.1941 20.737Z" fill="white"/>
<path d="M31.0646 26.6271C31.7489 26.6271 32.3036 26.0861 32.3036 25.4188C32.3036 24.7514 31.7489 24.2104 31.0646 24.2104C30.3803 24.2104 29.8256 24.7514 29.8256 25.4188C29.8256 26.0861 30.3803 26.6271 31.0646 26.6271Z" fill="white"/>
<path d="M35.7107 34.3318C37.2504 34.3318 38.4985 33.1146 38.4985 31.6131C38.4985 30.1115 37.2504 28.8943 35.7107 28.8943C34.1711 28.8943 32.923 30.1115 32.923 31.6131C32.923 33.1146 34.1711 34.3318 35.7107 34.3318Z" fill="white"/>
<path d="M41.5947 41.1259C43.3054 41.1259 44.6922 39.7734 44.6922 38.105C44.6922 36.4366 43.3054 35.0842 41.5947 35.0842C39.884 35.0842 38.4972 36.4366 38.4972 38.105C38.4972 39.7734 39.884 41.1259 41.5947 41.1259Z" fill="white"/>
<path d="M48.7199 48.2274C50.6872 48.2274 52.282 46.6721 52.282 44.7535C52.282 42.8348 50.6872 41.2795 48.7199 41.2795C46.7526 41.2795 45.1578 42.8348 45.1578 44.7535C45.1578 46.6721 46.7526 48.2274 48.7199 48.2274Z" fill="white"/>
<path d="M55.9986 43.9988C57.7948 43.9988 59.2509 42.5787 59.2509 40.8269C59.2509 39.0751 57.7948 37.655 55.9986 37.655C54.2024 37.655 52.7462 39.0751 52.7462 40.8269C52.7462 42.5787 54.2024 43.9988 55.9986 43.9988Z" fill="white"/>
<path d="M49.1836 37.9566C50.7233 37.9566 51.9714 36.7393 51.9714 35.2378C51.9714 33.7363 50.7233 32.519 49.1836 32.519C47.644 32.519 46.3959 33.7363 46.3959 35.2378C46.3959 36.7393 47.644 37.9566 49.1836 37.9566Z" fill="white"/>
<path d="M43.4549 31.7646C44.8235 31.7646 45.9329 30.6826 45.9329 29.3479C45.9329 28.0132 44.8235 26.9312 43.4549 26.9312C42.0864 26.9312 40.977 28.0132 40.977 29.3479C40.977 30.6826 42.0864 31.7646 43.4549 31.7646Z" fill="white"/>
<path d="M38.964 26.3263C40.3325 26.3263 41.442 25.2443 41.442 23.9096C41.442 22.5749 40.3325 21.4929 38.964 21.4929C37.5954 21.4929 36.486 22.5749 36.486 23.9096C36.486 25.2443 37.5954 26.3263 38.964 26.3263Z" fill="white"/>
<path d="M35.248 19.6803C35.8467 19.6803 36.3321 19.2069 36.3321 18.623C36.3321 18.0391 35.8467 17.5657 35.248 17.5657C34.6493 17.5657 34.1639 18.0391 34.1639 18.623C34.1639 19.2069 34.6493 19.6803 35.248 19.6803Z" fill="white"/>
<path d="M32.3043 15.4505C33.4162 15.4505 34.3177 14.5714 34.3177 13.4869C34.3177 12.4025 33.4162 11.5234 32.3043 11.5234C31.1923 11.5234 30.2909 12.4025 30.2909 13.4869C30.2909 14.5714 31.1923 15.4505 32.3043 15.4505Z" fill="white"/>
<path d="M30.1352 10.9191C31.2472 10.9191 32.1486 10.04 32.1486 8.9555C32.1486 7.87106 31.2472 6.99194 30.1352 6.99194C29.0233 6.99194 28.1219 7.87106 28.1219 8.9555C28.1219 10.04 29.0233 10.9191 30.1352 10.9191Z" fill="white"/>
<path d="M28.2775 5.17995C28.7908 5.17995 29.2068 4.7742 29.2068 4.27369C29.2068 3.77318 28.7908 3.36743 28.2775 3.36743C27.7643 3.36743 27.3483 3.77318 27.3483 4.27369C27.3483 4.7742 27.7643 5.17995 28.2775 5.17995Z" fill="white"/>
<path d="M35.5559 5.78468C36.0691 5.78468 36.4851 5.37894 36.4851 4.87843C36.4851 4.37791 36.0691 3.97217 35.5559 3.97217C35.0427 3.97217 34.6266 4.37791 34.6266 4.87843C34.6266 5.37894 35.0427 5.78468 35.5559 5.78468Z" fill="white"/>
<path d="M37.5688 10.7691C38.5953 10.7691 39.4273 9.95758 39.4273 8.95655C39.4273 7.95553 38.5953 7.14404 37.5688 7.14404C36.5424 7.14404 35.7104 7.95553 35.7104 8.95655C35.7104 9.95758 36.5424 10.7691 37.5688 10.7691Z" fill="white"/>
<path d="M39.738 15.1484C40.7644 15.1484 41.5965 14.3369 41.5965 13.3359C41.5965 12.3349 40.7644 11.5234 39.738 11.5234C38.7116 11.5234 37.8796 12.3349 37.8796 13.3359C37.8796 14.3369 38.7116 15.1484 39.738 15.1484Z" fill="white"/>
<path d="M42.6798 19.8316C43.7917 19.8316 44.6931 18.9525 44.6931 17.8681C44.6931 16.7836 43.7917 15.9045 42.6798 15.9045C41.5678 15.9045 40.6664 16.7836 40.6664 17.8681C40.6664 18.9525 41.5678 19.8316 42.6798 19.8316Z" fill="white"/>
<path d="M46.2419 23.7574C46.8406 23.7574 47.326 23.2841 47.326 22.7001C47.326 22.1162 46.8406 21.6428 46.2419 21.6428C45.6431 21.6428 45.1578 22.1162 45.1578 22.7001C45.1578 23.2841 45.6431 23.7574 46.2419 23.7574Z" fill="white"/>
<path d="M50.8885 29.4963C52.086 29.4963 53.0567 28.5496 53.0567 27.3817C53.0567 26.2138 52.086 25.2671 50.8885 25.2671C49.691 25.2671 48.7203 26.2138 48.7203 27.3817C48.7203 28.5496 49.691 29.4963 50.8885 29.4963Z" fill="white"/>
<path d="M56.4624 35.0864C57.9165 35.0864 59.0952 33.9368 59.0952 32.5186C59.0952 31.1005 57.9165 29.9509 56.4624 29.9509C55.0083 29.9509 53.8295 31.1005 53.8295 32.5186C53.8295 33.9368 55.0083 35.0864 56.4624 35.0864Z" fill="white"/>
<path d="M62.9696 39.0147C63.7394 39.0147 64.3635 38.4061 64.3635 37.6553C64.3635 36.9045 63.7394 36.2959 62.9696 36.2959C62.1998 36.2959 61.5757 36.9045 61.5757 37.6553C61.5757 38.4061 62.1998 39.0147 62.9696 39.0147Z" fill="white"/>
<path d="M62.968 32.8211C64.251 32.8211 65.2911 31.8067 65.2911 30.5554C65.2911 29.3042 64.251 28.2898 62.968 28.2898C61.685 28.2898 60.6449 29.3042 60.6449 30.5554C60.6449 31.8067 61.685 32.8211 62.968 32.8211Z" fill="white"/>
<path d="M69.3169 35.9921C70.0012 35.9921 70.5559 35.4511 70.5559 34.7838C70.5559 34.1164 70.0012 33.5754 69.3169 33.5754C68.6327 33.5754 68.0779 34.1164 68.0779 34.7838C68.0779 35.4511 68.6327 35.9921 69.3169 35.9921Z" fill="white"/>
<path d="M57.5485 28.1376C58.746 28.1376 59.7167 27.1909 59.7167 26.023C59.7167 24.8552 58.746 23.9084 57.5485 23.9084C56.351 23.9084 55.3802 24.8552 55.3802 26.023C55.3802 27.1909 56.351 28.1376 57.5485 28.1376Z" fill="white"/>
<path d="M53.0555 23.6065C54.1675 23.6065 55.0689 22.7274 55.0689 21.6429C55.0689 20.5585 54.1675 19.6794 53.0555 19.6794C51.9436 19.6794 51.0421 20.5585 51.0421 21.6429C51.0421 22.7274 51.9436 23.6065 53.0555 23.6065Z" fill="white"/>
<path d="M49.4951 18.1693C50.0083 18.1693 50.4243 17.7635 50.4243 17.263C50.4243 16.7625 50.0083 16.3567 49.4951 16.3567C48.9819 16.3567 48.5658 16.7625 48.5658 17.263C48.5658 17.7635 48.9819 18.1693 49.4951 18.1693Z" fill="white"/>
<path d="M46.5513 14.9984C47.5777 14.9984 48.4098 14.1869 48.4098 13.1859C48.4098 12.1848 47.5777 11.3733 46.5513 11.3733C45.5249 11.3733 44.6927 12.1848 44.6927 13.1859C44.6927 14.1869 45.5249 14.9984 46.5513 14.9984Z" fill="white"/>
<path d="M44.2281 10.3159C44.7413 10.3159 45.1575 9.91019 45.1575 9.40968C45.1575 8.90916 44.7413 8.50342 44.2281 8.50342C43.7149 8.50342 43.299 8.90916 43.299 9.40968C43.299 9.91019 43.7149 10.3159 44.2281 10.3159Z" fill="white"/>
<path d="M42.2168 6.38893C42.73 6.38893 43.146 5.98319 43.146 5.48268C43.146 4.98216 42.73 4.57642 42.2168 4.57642C41.7035 4.57642 41.2875 4.98216 41.2875 5.48268C41.2875 5.98319 41.7035 6.38893 42.2168 6.38893Z" fill="white"/>
<path d="M48.1786 6.76499C48.6491 6.76499 49.0304 6.39306 49.0304 5.93425C49.0304 5.47545 48.6491 5.10352 48.1786 5.10352C47.7082 5.10352 47.3268 5.47545 47.3268 5.93425C47.3268 6.39306 47.7082 6.76499 48.1786 6.76499Z" fill="white"/>
<path d="M50.2694 11.2214C51.2103 11.2214 51.973 10.4775 51.973 9.55992C51.973 8.64231 51.2103 7.89844 50.2694 7.89844C49.3286 7.89844 48.5658 8.64231 48.5658 9.55992C48.5658 10.4775 49.3286 11.2214 50.2694 11.2214Z" fill="white"/>
<path d="M52.7458 14.8463C53.6866 14.8463 54.4494 14.1025 54.4494 13.1849C54.4494 12.2673 53.6866 11.5234 52.7458 11.5234C51.8049 11.5234 51.0421 12.2673 51.0421 13.1849C51.0421 14.1025 51.8049 14.8463 52.7458 14.8463Z" fill="white"/>
<path d="M55.6908 18.4712C56.6317 18.4712 57.3944 17.7273 57.3944 16.8097C57.3944 15.8921 56.6317 15.1482 55.6908 15.1482C54.75 15.1482 53.9872 15.8921 53.9872 16.8097C53.9872 17.7273 54.75 18.4712 55.6908 18.4712Z" fill="white"/>
<path d="M59.2522 21.7939C59.7654 21.7939 60.1814 21.3882 60.1814 20.8877C60.1814 20.3871 59.7654 19.9814 59.2522 19.9814C58.7389 19.9814 58.3229 20.3871 58.3229 20.8877C58.3229 21.3882 58.7389 21.7939 59.2522 21.7939Z" fill="white"/>
<path d="M63.5891 26.7787C64.701 26.7787 65.6025 25.8996 65.6025 24.8152C65.6025 23.7307 64.701 22.8516 63.5891 22.8516C62.4772 22.8516 61.5757 23.7307 61.5757 24.8152C61.5757 25.8996 62.4772 26.7787 63.5891 26.7787Z" fill="white"/>
<path d="M68.6968 29.6502C69.2956 29.6502 69.7809 29.1768 69.7809 28.5929C69.7809 28.0089 69.2956 27.5356 68.6968 27.5356C68.0981 27.5356 67.6127 28.0089 67.6127 28.5929C67.6127 29.1768 68.0981 29.6502 68.6968 29.6502Z" fill="white"/>
<path d="M74.8917 34.9342C76.2603 34.9342 77.3697 33.8522 77.3697 32.5175C77.3697 31.1828 76.2603 30.1008 74.8917 30.1008C73.5232 30.1008 72.4137 31.1828 72.4137 32.5175C72.4137 33.8522 73.5232 34.9342 74.8917 34.9342Z" fill="white"/>
<path d="M80.0059 31.6134C80.6046 31.6134 81.09 31.14 81.09 30.5561C81.09 29.9722 80.6046 29.4988 80.0059 29.4988C79.4072 29.4988 78.9218 29.9722 78.9218 30.5561C78.9218 31.14 79.4072 31.6134 80.0059 31.6134Z" fill="white"/>
<path d="M73.8116 29.1942C74.9236 29.1942 75.825 28.3151 75.825 27.2307C75.825 26.1462 74.9236 25.2671 73.8116 25.2671C72.6997 25.2671 71.7983 26.1462 71.7983 27.2307C71.7983 28.3151 72.6997 29.1942 73.8116 29.1942Z" fill="white"/>
<path d="M68.6997 24.512C69.2129 24.512 69.6289 24.1063 69.6289 23.6058C69.6289 23.1053 69.2129 22.6995 68.6997 22.6995C68.1865 22.6995 67.7704 23.1053 67.7704 23.6058C67.7704 24.1063 68.1865 24.512 68.6997 24.512Z" fill="white"/>
<path d="M64.515 21.6432C65.4558 21.6432 66.2186 20.8994 66.2186 19.9818C66.2186 19.0642 65.4558 18.3203 64.515 18.3203C63.5741 18.3203 62.8113 19.0642 62.8113 19.9818C62.8113 20.8994 63.5741 21.6432 64.515 21.6432Z" fill="white"/>
<path d="M60.9545 18.1685C61.8954 18.1685 62.6581 17.4246 62.6581 16.507C62.6581 15.5894 61.8954 14.8455 60.9545 14.8455C60.0136 14.8455 59.2509 15.5894 59.2509 16.507C59.2509 17.4246 60.0136 18.1685 60.9545 18.1685Z" fill="white"/>
<path d="M58.0128 14.5443C58.8681 14.5443 59.5615 13.868 59.5615 13.0338C59.5615 12.1996 58.8681 11.5234 58.0128 11.5234C57.1574 11.5234 56.464 12.1996 56.464 13.0338C56.464 13.868 57.1574 14.5443 58.0128 14.5443Z" fill="white"/>
<path d="M55.691 11.0722C56.5463 11.0722 57.2397 10.3959 57.2397 9.5617C57.2397 8.72751 56.5463 8.05127 55.691 8.05127C54.8356 8.05127 54.1422 8.72751 54.1422 9.5617C54.1422 10.3959 54.8356 11.0722 55.691 11.0722Z" fill="white"/>
<path d="M53.3678 6.99114C53.7955 6.99114 54.1422 6.65302 54.1422 6.23592C54.1422 5.81883 53.7955 5.48071 53.3678 5.48071C52.9401 5.48071 52.5934 5.81883 52.5934 6.23592C52.5934 6.65302 52.9401 6.99114 53.3678 6.99114Z" fill="white"/>
</g>
<defs>
<clipPath id="clip0_1_480">
<rect width="81" height="58" fill="white" transform="translate(0.0899658 0.800049)"/>
</clipPath>
</defs>
</svg>
