<svg width="16" height="16" viewBox="0 0 16 16" fill="none" xmlns="http://www.w3.org/2000/svg">
<path fill-rule="evenodd" clip-rule="evenodd" d="M7.86776 1.45455C6.66277 1.45455 5.68594 2.43138 5.68594 3.63636C5.68594 4.84135 6.66277 5.81818 7.86776 5.81818C9.07274 5.81818 10.0496 4.84135 10.0496 3.63636C10.0496 2.43138 9.07274 1.45455 7.86776 1.45455ZM4.23139 3.63636C4.23139 1.62806 5.85945 0 7.86776 0C9.87607 0 11.5041 1.62806 11.5041 3.63636C11.5041 5.64467 9.87607 7.27273 7.86776 7.27273C5.85945 7.27273 4.23139 5.64467 4.23139 3.63636ZM0.595032 15.2727C0.595032 11.2561 3.85115 8 7.86776 8C11.8843 8 15.1405 11.2561 15.1405 15.2727C15.1405 15.6744 14.8148 16 14.4132 16C14.0115 16 13.6859 15.6744 13.6859 15.2727C13.6859 12.0594 11.081 9.45455 7.86776 9.45455C4.65447 9.45455 2.04958 12.0594 2.04958 15.2727C2.04958 15.6744 1.72396 16 1.3223 16C0.920643 16 0.595032 15.6744 0.595032 15.2727Z" fill="white"/>
</svg>
