<svg width="63" height="40" viewBox="0 0 63 40" fill="none" xmlns="http://www.w3.org/2000/svg">
<g clip-path="url(#clip0_1_41)">
<path d="M6.49863 10.1492H23.4731C24.3106 10.1517 25.1131 10.4883 25.7053 11.0857C26.2974 11.683 26.6312 12.4925 26.6336 13.3373V13.5947C26.631 14.4394 26.2972 15.2488 25.7051 15.8461C25.1129 16.4434 24.3105 16.7801 23.4731 16.7827H10.7981L10.7972 16.7841L10.7968 16.7857L10.7972 16.7873L10.7981 16.7887L25.8327 39.998H37.4068L37.4081 39.9965L37.4085 39.9947L37.4081 39.9928L37.4068 39.9913L28.2389 25.86L28.2379 25.8587L28.2376 25.857L28.2379 25.8554L28.2389 25.854C30.343 25.0062 32.1961 23.6278 33.6209 21.8508C35.0456 20.0737 35.9944 17.9576 36.3763 15.7048C37.7441 7.54557 31.4053 0.133301 23.2015 0.133301H0.0625006L0.0217285 0.159835L6.49205 10.1472L6.49192 10.1486L6.49232 10.1499L6.49317 10.1509L6.49435 10.1515L6.49569 10.1517L6.49697 10.1513L6.498 10.1504L6.49863 10.1492Z" fill="#5C5EAB"/>
<path d="M62.9882 29.9833H49.7819C49.7161 29.9833 49.6543 29.9833 49.5905 29.9774L49.5004 29.9701C49.4728 29.9701 49.4452 29.9654 49.4176 29.9621C49.3741 29.9575 49.3321 29.9522 49.2906 29.9455H49.2722C48.5846 29.8366 47.9491 29.5104 47.457 29.0139C46.9649 28.5175 46.6417 27.8763 46.5339 27.1827C46.5339 27.1767 46.5339 27.1707 46.5339 27.1648C46.5273 27.123 46.5221 27.0799 46.5174 27.0367C46.5174 27.0089 46.5122 26.981 46.5096 26.9532C46.5069 26.9253 46.5043 26.8928 46.5023 26.8616C46.5023 26.7953 46.4964 26.7336 46.4964 26.6692C46.4964 26.6029 46.4964 26.5366 46.5023 26.4762C46.5023 26.445 46.5069 26.4152 46.5096 26.3847C46.5122 26.3541 46.5142 26.3289 46.5174 26.3011C46.5221 26.258 46.5273 26.2155 46.5339 26.1731C46.5339 26.1671 46.5339 26.1611 46.5339 26.1551C46.6417 25.4616 46.9649 24.8204 47.457 24.3239C47.9491 23.8274 48.5846 23.5012 49.2722 23.3923H49.2906C49.3321 23.3863 49.3741 23.3804 49.4176 23.3757L49.5004 23.3677C49.53 23.3677 49.5603 23.3624 49.5905 23.3611C49.6541 23.3571 49.7179 23.3551 49.7819 23.3551H63V13.3432C63 13.3406 62.999 13.338 62.9971 13.3362C62.9953 13.3343 62.9928 13.3333 62.9902 13.3333H49.9114C42.2232 13.3333 36.1573 19.6749 36.5848 27.4188C36.9714 34.4324 42.7322 39.9999 49.7819 39.9999H62.9882C62.9908 39.9999 62.9933 39.9989 62.9952 39.997C62.997 39.9951 62.9981 39.9926 62.9981 39.99V29.9933C62.9981 29.9906 62.997 29.9881 62.9952 29.9862C62.9933 29.9844 62.9908 29.9833 62.9882 29.9833Z" fill="#5C5EAB"/>
<path d="M9.73277 40V21.6915C9.73277 20.3896 9.22007 19.141 8.30744 18.2205C7.39482 17.2999 6.15703 16.7827 4.86639 16.7827C3.57574 16.7827 2.33796 17.2999 1.42533 18.2205C0.512707 19.141 0 20.3896 0 21.6915V40H9.73277Z" fill="#5C5EAB"/>
<path d="M42.1259 0L48.491 9.81758H63V0H42.1259Z" fill="#5C5EAB"/>
</g>
<defs>
<clipPath id="clip0_1_41">
<rect width="63" height="40" fill="white"/>
</clipPath>
</defs>
</svg>
